<svg width="80" height="75" viewBox="0 0 80 75" fill="none" xmlns="http://www.w3.org/2000/svg">
<rect x="0.5" y="0.5" width="79" height="74" rx="13.5" fill="#161618" stroke="#FFF8F8"/>
<path d="M47.29 46.1942L18 63L51.7584 55.5533C51.9171 55.5183 52.0648 55.4451 52.1889 55.3402L63.9982 45.3477C64.5023 44.9211 64.4619 44.1318 63.917 43.759L37.5879 25.7444C37.0415 25.3705 37.0027 24.5784 37.51 24.1529L52 12L16.1312 13.9389C15.5305 13.9713 15.0943 14.5229 15.201 15.1149L20.5 44.5L30.8459 31.3325C31.201 30.8806 31.8629 30.8202 32.2939 31.2005L47.454 44.577C47.9674 45.0301 47.8839 45.8535 47.29 46.1942Z" fill="#D9D9D9"/>
</svg>
